# xmcd
#
# Track frame offsets:
# 150
# 8179
# 24334
# 34921
# 48440
# 57941
# 74435
# 88052
# 110321
# 123784
# 133118
# 154394
# 167366
# 181198
# 193830
# 203214
# 217383
# 231328
# 251216
#
# Disc length: 3604 seconds
#
#
# Revision: 2
# Processed by: cddbd v1.5.1PL2 Copyright (c) Steve Scherf et al.
# Submitted via: FreeRIP 2.944 
#
DISCID=150e1213
DTITLE=John Denver - John Denver
DYEAR=1900
DGENRE=Country
TTITLE0=The Music Is You
TTITLE1=Farewell Andromeda
TTITLE2=Mother Nature
TTITLE3=Summer
TTITLE4=Toledo (Live)
TTITLE5=Matthew
TTITLE6=Rocky Moutain Suite
TTITLE7=Sweet Surrender
TTITLE8=Annie's Song
TTITLE9=The Eagle And The Hawk
TTITLE10=My Sweet Lady (Live)
TTITLE11=Annie's Other Song
TTITLE12=Rhymes And Reasons
TTITLE13=Forest Lawn
TTITLE14=Blue Grass
TTITLE15=Thank God I'M A Country Boy
TTITLE16=Take Me Home, Country Roads
TTITLE17=Poems, Prayers And Promises
TTITLE18=Rocky Moutain High
EXTD=
EXTT0=
EXTT1=
EXTT2=
EXTT3=
EXTT4=
EXTT5=
EXTT6=
EXTT7=
EXTT8=
EXTT9=
EXTT10=
EXTT11=
EXTT12=
EXTT13=
EXTT14=
EXTT15=
EXTT16=
EXTT17=
EXTT18=
PLAYORDER=
